HIERARCHY
ROOT Hips
{
	OFFSET 0.00000 0.00000 0.00000
	CHANNELS 6 Xposition Yposition Zposition Zrotation Yrotation Xrotation 
	JOINT LHipJoint
	{
		OFFSET 0 0 0
		CHANNELS 3 Zrotation Yrotation Xrotation
		JOINT LeftHip
		{
			OFFSET 1.32989 -1.57253 0.78074
			CHANNELS 3 Zrotation Yrotation Xrotation
			JOINT LeftKnee
			{
				OFFSET 2.24323 -6.16323 0.00000
				CHANNELS 3 Zrotation Yrotation Xrotation
				JOINT LeftAnkle
				{
					OFFSET 2.32677 -6.39275 0.00000
					CHANNELS 3 Zrotation Yrotation Xrotation
					JOINT LeftToe
					{
						OFFSET 0.18686 -0.51340 1.95973
						CHANNELS 3 Zrotation Yrotation Xrotation
						End Site
						{
							OFFSET 0.00000 -0.00000 1.02033
						}
					}
				}
			}
		}
	}
	JOINT RHipJoint
	{
		OFFSET 0 0 0
		CHANNELS 3 Zrotation Yrotation Xrotation
		JOINT RightHip
		{
			OFFSET -1.27392 -1.57253 0.78074
			CHANNELS 3 Zrotation Yrotation Xrotation
			JOINT RightKnee
			{
				OFFSET -2.19978 -6.04385 0.00000
				CHANNELS 3 Zrotation Yrotation Xrotation
				JOINT RightAnkle
				{
					OFFSET -2.29380 -6.30216 0.00000
					CHANNELS 3 Zrotation Yrotation Xrotation
					JOINT RightToe
					{
						OFFSET -0.24624 -0.67655 1.94854
						CHANNELS 3 Zrotation Yrotation Xrotation
						End Site
						{
							OFFSET -0.00000 -0.00000 1.03267
						}
					}
				}
			}
		}
	}
	JOINT lowerback
	{
		OFFSET 0 0 0
		CHANNELS 3 Zrotation Yrotation Xrotation
		JOINT Chest
		{
			OFFSET -0.05982 2.08655 0.02100
			CHANNELS 3 Zrotation Yrotation Xrotation
			JOINT Chest2
			{
				OFFSET 0.04735 2.08455 -0.01795
				CHANNELS 3 Zrotation Yrotation Xrotation
				JOINT lowerneck
				{
					OFFSET 0 0 0
					CHANNELS 3 Zrotation Yrotation Xrotation
					JOINT Neck
					{
						OFFSET -0.10038 1.43781 0.03084
						CHANNELS 3 Zrotation Yrotation Xrotation
						JOINT Head
						{
							OFFSET 0.07701 1.43632 -0.18495
							CHANNELS 3 Zrotation Yrotation Xrotation
							End Site
							{
								OFFSET 0.02744 1.45633 -0.07361
							}
						}
					}
				}
				JOINT LeftCollar
				{
					OFFSET 0 0 0
					CHANNELS 3 Zrotation Yrotation Xrotation
					JOINT LeftShoulder
					{
						OFFSET 2.75061 0.74389 0.25227
CHANNELS 3 Zrotation Xrotation Yrotation
						JOINT LeftElbow
						{
OFFSET 0 -4.369010 0.000000
CHANNELS 3 Zrotation Xrotation Yrotation
							JOINT LeftWrist
							{
OFFSET 0 -3.217370 -0.000000
CHANNELS 3 Zrotation Xrotation Yrotation
								JOINT lhand
								{
									OFFSET 0 0 0
CHANNELS 3 Zrotation Xrotation Yrotation
									JOINT LFingers
									{
OFFSET 0 -0.564310 0.000000
CHANNELS 3 Zrotation Xrotation Yrotation
										End Site
										{
OFFSET 0 -0.454960 0.000000
										}
									}
								}
								JOINT LThumb
								{
OFFSET 0 0.000000 0.000000
CHANNELS 3 Zrotation Xrotation Yrotation
									End Site
									{
OFFSET 0 -0.461910 0.461910
									}
								}
							}
						}
					}
				}
				JOINT RightCollar
				{
					OFFSET 0 0 0
					CHANNELS 3 Zrotation Yrotation Xrotation
					JOINT RightShoulder
					{
						OFFSET -2.97379 0.79094 0.48377
CHANNELS 3 Zrotation Xrotation Yrotation
						JOINT RightElbow
						{
OFFSET 0 -4.341180 -0.000000
CHANNELS 3 Zrotation Xrotation Yrotation
							JOINT RightWrist
							{
OFFSET 0 -3.095310 0.000000
CHANNELS 3 Zrotation Xrotation Yrotation
								JOINT rhand
								{
									OFFSET 0 0 0
CHANNELS 3 Zrotation Xrotation Yrotation
									JOINT RFingers
									{
OFFSET 0 -0.597450 0.000000
CHANNELS 3 Zrotation Xrotation Yrotation
										End Site
										{
OFFSET 0 -0.481680 0.000000
										}
									}
								}
								JOINT RThumb
								{
OFFSET 0 0.000000 0.000000
CHANNELS 3 Zrotation Xrotation Yrotation
									End Site
									{
OFFSET 0 -0.489030 0.489030
									}
								}
							}
						}
					}
				}
			}
		}
	}
}
MOTION
Frames: 8
Frame Time: 0.008333333333333333
9.591700 15.755700 -0.591300 87.013100 -77.513800 -80.865900 0.000000 0.000000 0.000000 -25.452400 -6.979800 -2.526800 0.771100 5.607100 15.648600 -3.662800 32.063400 -19.502600 0.723100 -5.433600 -15.149500 0.000000 0.000000 0.000000 1.661200 26.986000 -0.982300 -1.938900 -8.737700 24.978300 5.838500 -42.981600 4.172700 -5.046600 13.436100 -41.023600 -10.070500 1.308400 -4.488900 -1.755600 2.324400 0.869300 3.967000 0.962600 3.110800 0.706000 1.686600 -12.496700 -9.140800 3.352100 11.920200 -2.723000 0.920000 5.844700 0.000000 -0.000000 0.000000 22.867300 2.922700 -22.434700 25.875200 -37.085200 8.812300 22.156300 -16.409300 -35.959500 0.000000 0.000000 0.000000 -7.125000 0.000000 0.000000 -15.778000 67.427200 8.598900 0.000000 -0.000000 0.000000 -14.167700 9.879700 -25.173600 -16.542100 -26.250200 -3.882600 -9.081000 13.454900 -28.772100 0.000000 0.000000 0.000000 7.125000 0.000000 -0.000000 12.594800 1.505800 12.569500
9.578241 15.817937 -0.590755 82.089137 -81.808002 -74.468319 0.000000 0.000000 0.000000 -20.370899 -8.175607 -5.478470 1.085553 6.598225 18.538656 -3.318318 31.309242 -21.661681 0.637913 -5.106778 -14.214077 0.000000 0.000000 0.000000 6.166230 27.083868 -1.436397 -1.592706 -7.946745 22.560001 6.339897 -44.193356 3.773449 -5.398006 13.815590 -42.509276 -5.650346 1.388686 -6.180659 -0.523462 2.244348 0.295319 2.825106 1.005933 3.580690 0.430445 1.660149 -11.724805 -9.063548 3.314291 11.711784 -2.656406 0.919378 5.640018 0.000000 0.000000 0.000000 22.423394 3.711010 -22.060966 25.843304 -37.053537 8.793084 21.770897 -15.763513 -37.947663 0.000000 0.000000 0.000000 -7.125000 0.000000 0.000000 -18.665722 69.161514 10.974100 0.000000 0.000000 0.000000 -13.975543 10.752186 -18.755014 -17.064269 -26.940954 -4.117156 -17.552164 -5.073929 -26.021766 0.000000 0.000000 0.000000 7.125000 0.000000 0.000000 7.349305 3.030608 7.082914
9.575289 15.843205 -0.588988 73.792757 -84.464055 -65.247187 0.000000 0.000000 0.000000 -17.052965 -8.918112 -7.225948 1.256076 7.101803 20.018659 -3.154401 30.957464 -22.640086 0.611988 -5.006996 -13.928588 0.000000 0.000000 0.000000 9.191772 28.303317 -0.639104 -1.385050 -7.441536 21.032519 8.141774 -45.369310 -8.835005 -4.733345 13.033028 -39.567387 -2.824145 1.465080 -7.220705 0.296624 2.156123 -0.104491 2.114165 1.010183 3.824373 0.262296 1.657548 -11.031907 -9.057622 3.300220 11.513096 -2.628450 0.927928 5.456350 0.000000 0.000000 0.000000 21.987994 4.410317 -21.766063 25.697164 -36.907853 8.705267 21.550549 -15.246311 -39.678321 0.000000 0.000000 0.000000 -7.125000 0.000000 0.000000 -21.387611 70.661115 13.328230 0.000000 0.000000 0.000000 -13.930429 11.238358 -15.892468 -17.438339 -27.431184 -4.287669 -18.392959 -12.234894 -25.181152 0.000000 0.000000 0.000000 7.125000 0.000000 0.000000 6.808394 3.776118 6.388915
9.575633 15.849133 -0.585062 67.862223 -85.624029 -58.926010 0.000000 0.000000 0.000000 -15.537694 -9.347315 -8.090302 1.365809 7.394527 20.890614 -3.089179 30.849702 -23.103924 0.628830 -5.073019 -14.117239 0.000000 0.000000 0.000000 10.589580 28.967754 0.415590 -1.239936 -7.056631 19.885002 8.334146 -44.265054 -23.113029 -3.498527 11.338094 -33.573591 -1.550994 1.504628 -7.658488 0.701418 2.095419 -0.336139 1.823161 1.000261 3.863052 0.175341 1.679263 -10.418640 -9.100016 3.315229 11.349980 -2.627176 0.947822 5.301108 0.000000 0.000000 0.000000 21.523170 5.068232 -21.478037 25.458485 -36.668383 8.562438 21.608944 -14.700534 -41.171240 0.000000 0.000000 0.000000 -7.125000 0.000000 0.000000 -23.745069 71.999293 15.517417 0.000000 0.000000 0.000000 -13.952557 11.483727 -15.027096 -17.653526 -27.711143 -4.386894 -16.718475 -13.759381 -25.466950 0.000000 0.000000 0.000000 7.125000 0.000000 0.000000 7.849228 3.752481 7.392779
9.574620 15.850309 -0.578995 67.029200 -85.661463 -58.122357 0.000000 0.000000 0.000000 -15.491951 -9.557891 -8.388149 1.461660 7.640838 21.628380 -3.041118 30.800814 -23.544278 0.655627 -5.177797 -14.416627 0.000000 0.000000 0.000000 10.586618 28.197627 1.005465 -1.113979 -6.704716 18.843705 5.906698 -40.460585 -31.957856 -2.160938 9.170892 -26.347102 -1.502498 1.495425 -7.637591 0.768160 2.073948 -0.435645 1.859958 0.991364 3.748173 0.145954 1.725594 -9.882061 -9.171528 3.362916 11.231792 -2.642356 0.980904 5.176056 0.000000 0.000000 0.000000 20.998474 5.720244 -21.135091 25.143756 -36.350102 8.375122 22.001274 -14.007081 -42.465223 0.000000 0.000000 0.000000 -7.125000 0.000000 0.000000 -25.661721 73.244638 17.482428 0.000000 0.000000 0.000000 -13.971536 11.617604 -14.910081 -17.741101 -27.824367 -4.427708 -16.099651 -13.914596 -26.005591 0.000000 0.000000 0.000000 7.125000 0.000000 0.000000 8.265741 3.300775 7.861922
9.572675 15.859411 -0.573393 67.146050 -85.681379 -58.275772 0.000000 0.000000 0.000000 -15.498563 -9.514014 -8.497686 1.501025 7.738472 21.922451 -2.884747 30.442718 -24.185398 0.590433 -4.918346 -13.676084 0.000000 0.000000 0.000000 10.453897 26.828334 0.747181 -1.044973 -6.500345 18.243507 4.739597 -38.522756 -33.845895 -1.512972 7.741540 -21.945853 -1.488572 1.475432 -7.593714 0.807525 2.042284 -0.529156 1.886098 0.977205 3.626967 0.156068 1.801368 -9.421351 -9.259360 3.449970 11.130190 -2.666395 1.031705 5.072121 0.000000 0.000000 0.000000 20.377193 6.383379 -20.659989 24.747694 -35.944628 8.141577 22.696618 -13.067302 -43.642904 0.000000 0.000000 0.000000 -7.125000 0.000000 0.000000 -27.315127 74.473198 19.352185 0.000000 0.000000 0.000000 -13.904320 11.772729 -14.680426 -17.858651 -27.975758 -4.482710 -17.551564 -14.597570 -25.169514 0.000000 0.000000 0.000000 7.125000 0.000000 0.000000 7.318727 3.926568 6.859828
9.571265 15.867311 -0.568727 67.658894 -85.737355 -58.794462 0.000000 0.000000 0.000000 -15.480936 -9.442959 -8.462382 1.499522 7.734938 21.911813 -2.654587 29.931432 -25.117402 0.463470 -4.349847 -12.065691 0.000000 0.000000 0.000000 10.365451 25.491228 0.547862 -1.031127 -6.459046 18.122306 0.901178 -31.688233 -40.595971 -0.511884 1.453825 -4.193151 -1.509505 1.401749 -7.586298 0.919277 1.937566 -0.721966 1.998515 0.926719 3.422955 0.052458 1.922150 -8.477302 -9.359479 3.575823 10.789656 -2.675009 1.116429 4.813059 0.000000 0.000000 0.000000 19.531938 7.353761 -20.125455 24.293403 -35.471641 7.876780 23.803447 -11.634834 -45.207697 0.000000 0.000000 0.000000 -7.125000 0.000000 0.000000 -29.987964 76.132208 22.362042 0.000000 0.000000 0.000000 -13.903281 12.131595 -14.216180 -18.002178 -28.159871 -4.550333 -19.766482 -15.379776 -23.885290 0.000000 0.000000 0.000000 7.125000 0.000000 0.000000 5.845034 4.892930 5.366915
9.570343 15.871759 -0.564527 68.280224 -85.832846 -59.407298 0.000000 0.000000 0.000000 -15.421643 -9.351238 -8.422747 1.489893 7.711189 21.840334 -2.486690 29.563629 -25.792737 0.377576 -3.943108 -10.917091 0.000000 0.000000 0.000000 10.354335 24.906810 0.409979 -1.032354 -6.462706 18.133095 -0.963821 -28.260433 -43.786198 -0.065161 -1.644874 4.525317 -1.462909 1.384508 -7.595150 0.976067 1.906599 -0.813707 2.026301 0.912629 3.333700 0.068577 2.002931 -8.021513 -9.441300 3.659936 10.584832 -2.698817 1.171314 4.678440 0.000000 0.000000 0.000000 18.786749 8.026623 -19.793644 23.744991 -34.890699 7.561361 24.746697 -10.332445 -46.893552 0.000000 0.000000 0.000000 -7.125000 0.000000 0.000000 -34.133341 77.751298 26.700404 0.000000 0.000000 0.000000 -13.732858 12.264878 -14.005902 -18.094585 -28.278153 -4.593963 -21.422813 -15.859069 -23.039816 0.000000 0.000000 0.000000 7.125000 0.000000 0.000000 4.743956 5.497155 4.284895
